o Outline
v 0.000000 -1.033221 0.000000
v 0.747646 -0.462077 0.543191
v -0.285570 -0.462077 0.878909
v -0.924140 -0.462072 0.000000
v -0.285570 -0.462077 -0.878908
v 0.747646 -0.462077 -0.543191
v 0.285570 0.462077 0.878908
v -0.747646 0.462077 0.543191
v -0.747646 0.462077 -0.543191
v 0.285570 0.462077 -0.878909
v 0.924140 0.462072 -0.000000
v 0.000000 1.033221 -0.000000
v -0.167853 -0.878914 0.516605
v 0.439452 -0.878914 0.319277
v 0.271601 -0.543203 0.835888
v 0.878907 -0.543202 0.000000
v 0.439452 -0.878914 -0.319277
v -0.543195 -0.878911 0.000000
v -0.711051 -0.543202 0.516607
v -0.167853 -0.878914 -0.516605
v -0.711051 -0.543202 -0.516607
v 0.271601 -0.543203 -0.835888
v 0.982653 0.000000 0.319278
v 0.982653 -0.000000 -0.319278
v 0.000000 0.000000 1.033221
v 0.607313 0.000000 0.835893
v -0.982653 0.000000 0.319278
v -0.607313 0.000000 0.835893
v -0.607313 -0.000000 -0.835893
v -0.982653 -0.000000 -0.319278
v 0.607313 -0.000000 -0.835893
v 0.000000 -0.000000 -1.033221
v 0.711051 0.543202 0.516607
v -0.271601 0.543203 0.835888
v -0.878907 0.543202 -0.000000
v -0.271601 0.543203 -0.835888
v 0.711051 0.543202 -0.516607
v 0.167853 0.878914 0.516605
v 0.543195 0.878911 -0.000000
v -0.439452 0.878914 0.319277
v -0.439452 0.878914 -0.319277
v 0.167853 0.878914 -0.516605
vn -0.0000 1.0000 -0.0000
vn 0.1625 0.8507 -0.5000
vn -0.4253 0.8507 -0.3090
vn -0.7236 0.4472 -0.5257
vn -0.8506 0.5257 -0.0000
vn 0.5257 0.8507 -0.0000
vn 0.1625 0.8507 0.5000
vn -0.4253 0.8507 0.3090
vn -0.9511 -0.0000 -0.3090
vn 0.2764 0.4472 -0.8506
vn -0.0000 -0.0000 -1.0000
vn -0.2629 0.5257 -0.8090
vn 0.8944 0.4472 -0.0000
vn 0.9511 -0.0000 -0.3090
vn 0.6882 0.5257 -0.5000
vn 0.2764 0.4472 0.8506
vn 0.5878 -0.0000 0.8090
vn 0.6882 0.5257 0.5000
vn -0.7236 0.4472 0.5257
vn -0.5878 -0.0000 0.8090
vn -0.2629 0.5257 0.8090
vn -0.5878 -0.0000 -0.8090
vn 0.5878 -0.0000 -0.8090
vn 0.9511 -0.0000 0.3090
vn -0.0000 -0.0000 1.0000
vn -0.9511 -0.0000 0.3090
vn -0.2764 -0.4472 -0.8506
vn -0.1625 -0.8507 -0.5000
vn -0.6882 -0.5257 -0.5000
vn 0.7236 -0.4472 -0.5257
vn 0.4253 -0.8507 -0.3090
vn 0.2629 -0.5257 -0.8090
vn 0.7236 -0.4472 0.5257
vn 0.4253 -0.8507 0.3090
vn 0.8506 -0.5257 -0.0000
vn -0.2764 -0.4472 0.8506
vn -0.1625 -0.8507 0.5000
vn 0.2629 -0.5257 0.8090
vn -0.8944 -0.4472 -0.0000
vn -0.5257 -0.8507 -0.0000
vn -0.6882 -0.5257 0.5000
vn -0.0000 -1.0000 -0.0000
vt 0.181819 0.000000
vt 0.136365 0.078731
vt 0.227273 0.078731
vt 0.272728 0.157461
vt 0.363637 0.157461
vt 0.318182 0.078731
vt 0.909091 0.000000
vt 0.863636 0.078731
vt 0.954545 0.078731
vt 0.727273 0.000000
vt 0.681818 0.078731
vt 0.772727 0.078731
vt 0.545455 0.000000
vt 0.500000 0.078731
vt 0.590909 0.078731
vt 0.318182 0.236191
vt 0.090910 0.157461
vt 0.136365 0.236191
vt 0.181819 0.157461
vt 0.818182 0.157461
vt 0.863636 0.236191
vt 0.909091 0.157461
vt 0.636364 0.157461
vt 0.681818 0.236191
vt 0.727273 0.157461
vt 0.454546 0.157461
vt 0.500000 0.236191
vt 0.545455 0.157461
vt 0.227273 0.236191
vt 0.045455 0.236191
vt 0.772727 0.236191
vt 0.590909 0.236191
vt 0.409092 0.236191
vt 0.181819 0.314921
vt 0.227273 0.393651
vt 0.272728 0.314921
vt 0.000000 0.314921
vt 0.045455 0.393651
vt 0.090910 0.314921
vt 0.727273 0.314921
vt 0.772727 0.393651
vt 0.818182 0.314921
vt 0.545455 0.314921
vt 0.590909 0.393651
vt 0.636364 0.314921
vt 0.363637 0.314921
vt 0.409092 0.393651
vt 0.454546 0.314921
vt 0.454546 0.472382
vt 0.500000 0.393651
vt 0.636364 0.472382
vt 0.681818 0.393651
vt 0.818182 0.472382
vt 0.863636 0.393651
vt 0.909091 0.314921
vt 0.090910 0.472382
vt 0.136365 0.393651
vt 0.272728 0.472382
vt 0.318182 0.393651
vt 0.954545 0.236191
vt 1.000000 0.157461
vt 0.409092 0.078731
vt 0.363637 0.000000
f 1/1/1 13/2/2 14/3/3
f 2/4/4 16/5/5 14/6/3
f 1/7/1 18/8/6 13/9/2
f 1/10/1 20/11/7 18/12/6
f 1/13/1 17/14/8 20/15/7
f 2/4/4 23/16/9 16/5/5
f 3/17/10 25/18/11 15/19/12
f 4/20/13 27/21/14 19/22/15
f 5/23/16 29/24/17 21/25/18
f 6/26/19 31/27/20 22/28/21
f 2/4/4 26/29/22 23/16/9
f 3/17/10 28/30/23 25/18/11
f 4/20/13 30/31/24 27/21/14
f 5/23/16 32/32/25 29/24/17
f 6/26/19 24/33/26 31/27/20
f 7/34/27 38/35/28 33/36/29
f 8/37/30 40/38/31 34/39/32
f 9/40/33 41/41/34 35/42/35
f 10/43/36 42/44/37 36/45/38
f 11/46/39 39/47/40 37/48/41
f 39/47/40 12/49/42 42/50/37
f 39/47/40 42/50/37 37/48/41
f 37/48/41 42/50/37 10/43/36
f 42/44/37 12/51/42 41/52/34
f 42/44/37 41/52/34 36/45/38
f 36/45/38 41/52/34 9/40/33
f 41/41/34 12/53/42 40/54/31
f 41/41/34 40/54/31 35/42/35
f 35/42/35 40/54/31 8/55/30
f 40/38/31 12/56/42 38/57/28
f 40/38/31 38/57/28 34/39/32
f 34/39/32 38/57/28 7/34/27
f 38/35/28 12/58/42 39/59/40
f 38/35/28 39/59/40 33/36/29
f 33/36/29 39/59/40 11/46/39
f 24/33/26 11/46/39 37/48/41
f 24/33/26 37/48/41 31/27/20
f 31/27/20 37/48/41 10/43/36
f 32/32/25 10/43/36 36/45/38
f 32/32/25 36/45/38 29/24/17
f 29/24/17 36/45/38 9/40/33
f 30/31/24 9/40/33 35/42/35
f 30/31/24 35/42/35 27/21/14
f 27/21/14 35/42/35 8/55/30
f 28/30/23 8/37/30 34/39/32
f 28/30/23 34/39/32 25/18/11
f 25/18/11 34/39/32 7/34/27
f 26/29/22 7/34/27 33/36/29
f 26/29/22 33/36/29 23/16/9
f 23/16/9 33/36/29 11/46/39
f 31/27/20 10/43/36 32/32/25
f 31/27/20 32/32/25 22/28/21
f 22/28/21 32/32/25 5/23/16
f 29/24/17 9/40/33 30/31/24
f 29/24/17 30/31/24 21/25/18
f 21/25/18 30/31/24 4/20/13
f 27/21/14 8/55/30 28/60/23
f 27/21/14 28/60/23 19/22/15
f 19/22/15 28/60/23 3/61/10
f 25/18/11 7/34/27 26/29/22
f 25/18/11 26/29/22 15/19/12
f 15/19/12 26/29/22 2/4/4
f 23/16/9 11/46/39 24/33/26
f 23/16/9 24/33/26 16/5/5
f 16/5/5 24/33/26 6/26/19
f 17/14/8 6/26/19 22/28/21
f 17/14/8 22/28/21 20/15/7
f 20/15/7 22/28/21 5/23/16
f 20/11/7 5/23/16 21/25/18
f 20/11/7 21/25/18 18/12/6
f 18/12/6 21/25/18 4/20/13
f 18/8/6 4/20/13 19/22/15
f 18/8/6 19/22/15 13/9/2
f 13/9/2 19/22/15 3/61/10
f 16/5/5 6/26/19 17/62/8
f 16/5/5 17/62/8 14/6/3
f 14/6/3 17/62/8 1/63/1
f 13/2/2 3/17/10 15/19/12
f 13/2/2 15/19/12 14/3/3
f 14/3/3 15/19/12 2/4/4
o Planet
v 0.000000 -1.000000 0.000000
v 0.723607 -0.447220 0.525725
v -0.276388 -0.447220 0.850649
v -0.894426 -0.447216 0.000000
v -0.276388 -0.447220 -0.850649
v 0.723607 -0.447220 -0.525725
v 0.276388 0.447220 0.850649
v -0.723607 0.447220 0.525725
v -0.723607 0.447220 -0.525725
v 0.276388 0.447220 -0.850649
v 0.894426 0.447216 -0.000000
v 0.000000 1.000000 -0.000000
v -0.162456 -0.850654 0.499995
v 0.425323 -0.850654 0.309011
v 0.262869 -0.525738 0.809012
v 0.850648 -0.525736 0.000000
v 0.425323 -0.850654 -0.309011
v -0.525730 -0.850652 0.000000
v -0.688189 -0.525736 0.499997
v -0.162456 -0.850654 -0.499995
v -0.688189 -0.525736 -0.499997
v 0.262869 -0.525738 -0.809012
v 0.951058 0.000000 0.309013
v 0.951058 -0.000000 -0.309013
v 0.000000 0.000000 1.000000
v 0.587786 0.000000 0.809017
v -0.951058 0.000000 0.309013
v -0.587786 0.000000 0.809017
v -0.587786 -0.000000 -0.809017
v -0.951058 -0.000000 -0.309013
v 0.587786 -0.000000 -0.809017
v 0.000000 -0.000000 -1.000000
v 0.688189 0.525736 0.499997
v -0.262869 0.525738 0.809012
v -0.850648 0.525736 -0.000000
v -0.262869 0.525738 -0.809012
v 0.688189 0.525736 -0.499997
v 0.162456 0.850654 0.499995
v 0.525730 0.850652 -0.000000
v -0.425323 0.850654 0.309011
v -0.425323 0.850654 -0.309011
v 0.162456 0.850654 -0.499995
vn -0.0000 -1.0000 -0.0000
vn 0.4253 -0.8507 0.3090
vn -0.1625 -0.8507 0.5000
vn 0.7236 -0.4472 0.5257
vn 0.8506 -0.5257 -0.0000
vn -0.5257 -0.8507 -0.0000
vn -0.1625 -0.8507 -0.5000
vn 0.4253 -0.8507 -0.3090
vn 0.9511 -0.0000 0.3090
vn -0.2764 -0.4472 0.8506
vn 0.2629 -0.5257 0.8090
vn -0.0000 -0.0000 1.0000
vn -0.8944 -0.4472 -0.0000
vn -0.6882 -0.5257 0.5000
vn -0.9511 -0.0000 0.3090
vn -0.2764 -0.4472 -0.8506
vn -0.6882 -0.5257 -0.5000
vn -0.5878 -0.0000 -0.8090
vn 0.7236 -0.4472 -0.5257
vn 0.2629 -0.5257 -0.8090
vn 0.5878 -0.0000 -0.8090
vn 0.5878 -0.0000 0.8090
vn -0.5878 -0.0000 0.8090
vn -0.9511 -0.0000 -0.3090
vn -0.0000 -0.0000 -1.0000
vn 0.9511 -0.0000 -0.3090
vn 0.2764 0.4472 0.8506
vn 0.6882 0.5257 0.5000
vn 0.1625 0.8507 0.5000
vn -0.7236 0.4472 0.5257
vn -0.2629 0.5257 0.8090
vn -0.4253 0.8507 0.3090
vn -0.7236 0.4472 -0.5257
vn -0.8506 0.5257 -0.0000
vn -0.4253 0.8507 -0.3090
vn 0.2764 0.4472 -0.8506
vn -0.2629 0.5257 -0.8090
vn 0.1625 0.8507 -0.5000
vn 0.8944 0.4472 -0.0000
vn 0.6882 0.5257 -0.5000
vn 0.5257 0.8507 -0.0000
vn -0.0000 1.0000 -0.0000
vt 0.181819 0.000000
vt 0.227273 0.078731
vt 0.136365 0.078731
vt 0.272728 0.157461
vt 0.318182 0.078731
vt 0.363637 0.157461
vt 0.909091 0.000000
vt 0.954545 0.078731
vt 0.863636 0.078731
vt 0.727273 0.000000
vt 0.772727 0.078731
vt 0.681818 0.078731
vt 0.545455 0.000000
vt 0.590909 0.078731
vt 0.500000 0.078731
vt 0.318182 0.236191
vt 0.090910 0.157461
vt 0.181819 0.157461
vt 0.136365 0.236191
vt 0.818182 0.157461
vt 0.909091 0.157461
vt 0.863636 0.236191
vt 0.636364 0.157461
vt 0.727273 0.157461
vt 0.681818 0.236191
vt 0.454546 0.157461
vt 0.545455 0.157461
vt 0.500000 0.236191
vt 0.227273 0.236191
vt 0.045455 0.236191
vt 0.772727 0.236191
vt 0.590909 0.236191
vt 0.409092 0.236191
vt 0.181819 0.314921
vt 0.272728 0.314921
vt 0.227273 0.393651
vt 0.000000 0.314921
vt 0.090910 0.314921
vt 0.045455 0.393651
vt 0.727273 0.314921
vt 0.818182 0.314921
vt 0.772727 0.393651
vt 0.545455 0.314921
vt 0.636364 0.314921
vt 0.590909 0.393651
vt 0.363637 0.314921
vt 0.454546 0.314921
vt 0.409092 0.393651
vt 0.500000 0.393651
vt 0.454546 0.472382
vt 0.681818 0.393651
vt 0.636364 0.472382
vt 0.863636 0.393651
vt 0.818182 0.472382
vt 0.909091 0.314921
vt 0.136365 0.393651
vt 0.090910 0.472382
vt 0.318182 0.393651
vt 0.272728 0.472382
vt 0.954545 0.236191
vt 1.000000 0.157461
vt 0.409092 0.078731
vt 0.363637 0.000000
f 43/64/43 56/65/44 55/66/45
f 44/67/46 56/68/44 58/69/47
f 43/70/43 55/71/45 60/72/48
f 43/73/43 60/74/48 62/75/49
f 43/76/43 62/77/49 59/78/50
f 44/67/46 58/69/47 65/79/51
f 45/80/52 57/81/53 67/82/54
f 46/83/55 61/84/56 69/85/57
f 47/86/58 63/87/59 71/88/60
f 48/89/61 64/90/62 73/91/63
f 44/67/46 65/79/51 68/92/64
f 45/80/52 67/82/54 70/93/65
f 46/83/55 69/85/57 72/94/66
f 47/86/58 71/88/60 74/95/67
f 48/89/61 73/91/63 66/96/68
f 49/97/69 75/98/70 80/99/71
f 50/100/72 76/101/73 82/102/74
f 51/103/75 77/104/76 83/105/77
f 52/106/78 78/107/79 84/108/80
f 53/109/81 79/110/82 81/111/83
f 81/111/83 84/112/80 54/113/84
f 81/111/83 79/110/82 84/112/80
f 79/110/82 52/106/78 84/112/80
f 84/108/80 83/114/77 54/115/84
f 84/108/80 78/107/79 83/114/77
f 78/107/79 51/103/75 83/114/77
f 83/105/77 82/116/74 54/117/84
f 83/105/77 77/104/76 82/116/74
f 77/104/76 50/118/72 82/116/74
f 82/102/74 80/119/71 54/120/84
f 82/102/74 76/101/73 80/119/71
f 76/101/73 49/97/69 80/119/71
f 80/99/71 81/121/83 54/122/84
f 80/99/71 75/98/70 81/121/83
f 75/98/70 53/109/81 81/121/83
f 66/96/68 79/110/82 53/109/81
f 66/96/68 73/91/63 79/110/82
f 73/91/63 52/106/78 79/110/82
f 74/95/67 78/107/79 52/106/78
f 74/95/67 71/88/60 78/107/79
f 71/88/60 51/103/75 78/107/79
f 72/94/66 77/104/76 51/103/75
f 72/94/66 69/85/57 77/104/76
f 69/85/57 50/118/72 77/104/76
f 70/93/65 76/101/73 50/100/72
f 70/93/65 67/82/54 76/101/73
f 67/82/54 49/97/69 76/101/73
f 68/92/64 75/98/70 49/97/69
f 68/92/64 65/79/51 75/98/70
f 65/79/51 53/109/81 75/98/70
f 73/91/63 74/95/67 52/106/78
f 73/91/63 64/90/62 74/95/67
f 64/90/62 47/86/58 74/95/67
f 71/88/60 72/94/66 51/103/75
f 71/88/60 63/87/59 72/94/66
f 63/87/59 46/83/55 72/94/66
f 69/85/57 70/123/65 50/118/72
f 69/85/57 61/84/56 70/123/65
f 61/84/56 45/124/52 70/123/65
f 67/82/54 68/92/64 49/97/69
f 67/82/54 57/81/53 68/92/64
f 57/81/53 44/67/46 68/92/64
f 65/79/51 66/96/68 53/109/81
f 65/79/51 58/69/47 66/96/68
f 58/69/47 48/89/61 66/96/68
f 59/78/50 64/90/62 48/89/61
f 59/78/50 62/77/49 64/90/62
f 62/77/49 47/86/58 64/90/62
f 62/75/49 63/87/59 47/86/58
f 62/75/49 60/74/48 63/87/59
f 60/74/48 46/83/55 63/87/59
f 60/72/48 61/84/56 46/83/55
f 60/72/48 55/71/45 61/84/56
f 55/71/45 45/124/52 61/84/56
f 58/69/47 59/125/50 48/89/61
f 58/69/47 56/68/44 59/125/50
f 56/68/44 43/126/43 59/125/50
f 55/66/45 57/81/53 45/80/52
f 55/66/45 56/65/44 57/81/53
f 56/65/44 44/67/46 57/81/53
